<mxfile host="Electron" modified="2023-07-17T10:55:11.564Z" agent="Mozilla/5.0 (Windows NT 6.1; Win64; x64) AppleWebKit/537.36 (KHTML, like Gecko) draw.io/21.1.2 Chrome/106.0.5249.199 Electron/21.4.3 Safari/537.36" etag="CXjvmfq4CuEaK-wP05vo" version="21.1.2" type="device">
  <diagram id="IPethDhe6ZVQqmIALtQ7" name="ページ1">
    <mxGraphModel dx="1418" dy="1944" grid="1" gridSize="10" guides="1" tooltips="1" connect="1" arrows="1" fold="1" page="1" pageScale="1" pageWidth="827" pageHeight="1169" math="0" shadow="0">
      <root>
        <mxCell id="0" />
        <mxCell id="1" parent="0" />
        <mxCell id="JXRzYk3_wMIeTqWAo9iV-1" value="" style="sketch=0;outlineConnect=0;fillColor=#0050ef;strokeColor=#001DBC;dashed=0;verticalLabelPosition=bottom;verticalAlign=top;align=center;html=1;fontSize=12;fontStyle=0;aspect=fixed;pointerEvents=1;shape=mxgraph.aws4.container_registry_image;fontColor=#ffffff;opacity=50;" vertex="1" parent="1">
          <mxGeometry x="400" width="280" height="280" as="geometry" />
        </mxCell>
        <mxCell id="JXRzYk3_wMIeTqWAo9iV-2" value="" style="whiteSpace=wrap;html=1;aspect=fixed;opacity=50;fillColor=none;" vertex="1" parent="1">
          <mxGeometry x="400" width="20" height="20" as="geometry" />
        </mxCell>
        <mxCell id="JXRzYk3_wMIeTqWAo9iV-3" value="" style="whiteSpace=wrap;html=1;aspect=fixed;opacity=50;fillColor=none;" vertex="1" parent="1">
          <mxGeometry x="400" y="20" width="20" height="20" as="geometry" />
        </mxCell>
        <mxCell id="JXRzYk3_wMIeTqWAo9iV-4" value="" style="whiteSpace=wrap;html=1;aspect=fixed;opacity=50;fillColor=none;" vertex="1" parent="1">
          <mxGeometry x="400" y="40" width="20" height="20" as="geometry" />
        </mxCell>
        <mxCell id="JXRzYk3_wMIeTqWAo9iV-5" value="" style="whiteSpace=wrap;html=1;aspect=fixed;opacity=50;fillColor=none;" vertex="1" parent="1">
          <mxGeometry x="400" y="60" width="20" height="20" as="geometry" />
        </mxCell>
        <mxCell id="JXRzYk3_wMIeTqWAo9iV-6" value="" style="whiteSpace=wrap;html=1;aspect=fixed;opacity=50;fillColor=none;" vertex="1" parent="1">
          <mxGeometry x="420" width="20" height="20" as="geometry" />
        </mxCell>
        <mxCell id="JXRzYk3_wMIeTqWAo9iV-7" value="" style="whiteSpace=wrap;html=1;aspect=fixed;opacity=50;fillColor=none;" vertex="1" parent="1">
          <mxGeometry x="420" y="20" width="20" height="20" as="geometry" />
        </mxCell>
        <mxCell id="JXRzYk3_wMIeTqWAo9iV-8" value="" style="whiteSpace=wrap;html=1;aspect=fixed;opacity=50;fillColor=none;" vertex="1" parent="1">
          <mxGeometry x="420" y="40" width="20" height="20" as="geometry" />
        </mxCell>
        <mxCell id="JXRzYk3_wMIeTqWAo9iV-9" value="" style="whiteSpace=wrap;html=1;aspect=fixed;opacity=50;fillColor=none;" vertex="1" parent="1">
          <mxGeometry x="420" y="60" width="20" height="20" as="geometry" />
        </mxCell>
        <mxCell id="JXRzYk3_wMIeTqWAo9iV-10" value="" style="whiteSpace=wrap;html=1;aspect=fixed;opacity=50;fillColor=none;" vertex="1" parent="1">
          <mxGeometry x="440" width="20" height="20" as="geometry" />
        </mxCell>
        <mxCell id="JXRzYk3_wMIeTqWAo9iV-11" value="" style="whiteSpace=wrap;html=1;aspect=fixed;opacity=50;fillColor=none;" vertex="1" parent="1">
          <mxGeometry x="440" y="20" width="20" height="20" as="geometry" />
        </mxCell>
        <mxCell id="JXRzYk3_wMIeTqWAo9iV-12" value="" style="whiteSpace=wrap;html=1;aspect=fixed;opacity=50;fillColor=none;" vertex="1" parent="1">
          <mxGeometry x="440" y="40" width="20" height="20" as="geometry" />
        </mxCell>
        <mxCell id="JXRzYk3_wMIeTqWAo9iV-13" value="" style="whiteSpace=wrap;html=1;aspect=fixed;opacity=50;fillColor=none;" vertex="1" parent="1">
          <mxGeometry x="440" y="60" width="20" height="20" as="geometry" />
        </mxCell>
        <mxCell id="JXRzYk3_wMIeTqWAo9iV-14" value="" style="whiteSpace=wrap;html=1;aspect=fixed;opacity=50;fillColor=none;" vertex="1" parent="1">
          <mxGeometry x="460" width="20" height="20" as="geometry" />
        </mxCell>
        <mxCell id="JXRzYk3_wMIeTqWAo9iV-15" value="" style="whiteSpace=wrap;html=1;aspect=fixed;opacity=50;fillColor=none;" vertex="1" parent="1">
          <mxGeometry x="460" y="20" width="20" height="20" as="geometry" />
        </mxCell>
        <mxCell id="JXRzYk3_wMIeTqWAo9iV-16" value="" style="whiteSpace=wrap;html=1;aspect=fixed;opacity=50;fillColor=none;" vertex="1" parent="1">
          <mxGeometry x="460" y="40" width="20" height="20" as="geometry" />
        </mxCell>
        <mxCell id="JXRzYk3_wMIeTqWAo9iV-17" value="" style="whiteSpace=wrap;html=1;aspect=fixed;opacity=50;fillColor=none;" vertex="1" parent="1">
          <mxGeometry x="460" y="60" width="20" height="20" as="geometry" />
        </mxCell>
        <mxCell id="JXRzYk3_wMIeTqWAo9iV-18" value="" style="whiteSpace=wrap;html=1;aspect=fixed;opacity=50;fillColor=none;" vertex="1" parent="1">
          <mxGeometry x="480" width="20" height="20" as="geometry" />
        </mxCell>
        <mxCell id="JXRzYk3_wMIeTqWAo9iV-19" value="" style="whiteSpace=wrap;html=1;aspect=fixed;opacity=50;fillColor=none;" vertex="1" parent="1">
          <mxGeometry x="480" y="20" width="20" height="20" as="geometry" />
        </mxCell>
        <mxCell id="JXRzYk3_wMIeTqWAo9iV-20" value="" style="whiteSpace=wrap;html=1;aspect=fixed;opacity=50;fillColor=none;" vertex="1" parent="1">
          <mxGeometry x="480" y="40" width="20" height="20" as="geometry" />
        </mxCell>
        <mxCell id="JXRzYk3_wMIeTqWAo9iV-21" value="" style="whiteSpace=wrap;html=1;aspect=fixed;opacity=50;fillColor=none;" vertex="1" parent="1">
          <mxGeometry x="480" y="60" width="20" height="20" as="geometry" />
        </mxCell>
        <mxCell id="JXRzYk3_wMIeTqWAo9iV-22" value="" style="whiteSpace=wrap;html=1;aspect=fixed;opacity=50;fillColor=none;" vertex="1" parent="1">
          <mxGeometry x="500" width="20" height="20" as="geometry" />
        </mxCell>
        <mxCell id="JXRzYk3_wMIeTqWAo9iV-23" value="" style="whiteSpace=wrap;html=1;aspect=fixed;opacity=50;fillColor=none;" vertex="1" parent="1">
          <mxGeometry x="500" y="20" width="20" height="20" as="geometry" />
        </mxCell>
        <mxCell id="JXRzYk3_wMIeTqWAo9iV-24" value="" style="whiteSpace=wrap;html=1;aspect=fixed;opacity=50;fillColor=none;" vertex="1" parent="1">
          <mxGeometry x="500" y="40" width="20" height="20" as="geometry" />
        </mxCell>
        <mxCell id="JXRzYk3_wMIeTqWAo9iV-25" value="" style="whiteSpace=wrap;html=1;aspect=fixed;opacity=50;fillColor=none;" vertex="1" parent="1">
          <mxGeometry x="500" y="60" width="20" height="20" as="geometry" />
        </mxCell>
        <mxCell id="JXRzYk3_wMIeTqWAo9iV-26" value="" style="whiteSpace=wrap;html=1;aspect=fixed;opacity=50;fillColor=none;" vertex="1" parent="1">
          <mxGeometry x="520" width="20" height="20" as="geometry" />
        </mxCell>
        <mxCell id="JXRzYk3_wMIeTqWAo9iV-27" value="" style="whiteSpace=wrap;html=1;aspect=fixed;opacity=50;fillColor=none;" vertex="1" parent="1">
          <mxGeometry x="520" y="20" width="20" height="20" as="geometry" />
        </mxCell>
        <mxCell id="JXRzYk3_wMIeTqWAo9iV-28" value="" style="whiteSpace=wrap;html=1;aspect=fixed;opacity=50;fillColor=none;" vertex="1" parent="1">
          <mxGeometry x="520" y="40" width="20" height="20" as="geometry" />
        </mxCell>
        <mxCell id="JXRzYk3_wMIeTqWAo9iV-29" value="" style="whiteSpace=wrap;html=1;aspect=fixed;opacity=50;fillColor=none;" vertex="1" parent="1">
          <mxGeometry x="520" y="60" width="20" height="20" as="geometry" />
        </mxCell>
        <mxCell id="JXRzYk3_wMIeTqWAo9iV-30" value="" style="whiteSpace=wrap;html=1;aspect=fixed;opacity=50;fillColor=none;" vertex="1" parent="1">
          <mxGeometry x="540" width="20" height="20" as="geometry" />
        </mxCell>
        <mxCell id="JXRzYk3_wMIeTqWAo9iV-31" value="" style="whiteSpace=wrap;html=1;aspect=fixed;opacity=50;fillColor=none;" vertex="1" parent="1">
          <mxGeometry x="540" y="20" width="20" height="20" as="geometry" />
        </mxCell>
        <mxCell id="JXRzYk3_wMIeTqWAo9iV-32" value="" style="whiteSpace=wrap;html=1;aspect=fixed;opacity=50;fillColor=none;" vertex="1" parent="1">
          <mxGeometry x="540" y="40" width="20" height="20" as="geometry" />
        </mxCell>
        <mxCell id="JXRzYk3_wMIeTqWAo9iV-33" value="" style="whiteSpace=wrap;html=1;aspect=fixed;opacity=50;fillColor=none;" vertex="1" parent="1">
          <mxGeometry x="540" y="60" width="20" height="20" as="geometry" />
        </mxCell>
        <mxCell id="JXRzYk3_wMIeTqWAo9iV-34" value="" style="whiteSpace=wrap;html=1;aspect=fixed;opacity=50;fillColor=none;" vertex="1" parent="1">
          <mxGeometry x="560" width="20" height="20" as="geometry" />
        </mxCell>
        <mxCell id="JXRzYk3_wMIeTqWAo9iV-35" value="" style="whiteSpace=wrap;html=1;aspect=fixed;opacity=50;fillColor=none;" vertex="1" parent="1">
          <mxGeometry x="560" y="20" width="20" height="20" as="geometry" />
        </mxCell>
        <mxCell id="JXRzYk3_wMIeTqWAo9iV-36" value="" style="whiteSpace=wrap;html=1;aspect=fixed;opacity=50;fillColor=none;" vertex="1" parent="1">
          <mxGeometry x="560" y="40" width="20" height="20" as="geometry" />
        </mxCell>
        <mxCell id="JXRzYk3_wMIeTqWAo9iV-37" value="" style="whiteSpace=wrap;html=1;aspect=fixed;opacity=50;fillColor=none;" vertex="1" parent="1">
          <mxGeometry x="560" y="60" width="20" height="20" as="geometry" />
        </mxCell>
        <mxCell id="JXRzYk3_wMIeTqWAo9iV-38" value="" style="whiteSpace=wrap;html=1;aspect=fixed;opacity=50;fillColor=none;" vertex="1" parent="1">
          <mxGeometry x="580" width="20" height="20" as="geometry" />
        </mxCell>
        <mxCell id="JXRzYk3_wMIeTqWAo9iV-39" value="" style="whiteSpace=wrap;html=1;aspect=fixed;opacity=50;fillColor=none;" vertex="1" parent="1">
          <mxGeometry x="580" y="20" width="20" height="20" as="geometry" />
        </mxCell>
        <mxCell id="JXRzYk3_wMIeTqWAo9iV-40" value="" style="whiteSpace=wrap;html=1;aspect=fixed;opacity=50;fillColor=none;" vertex="1" parent="1">
          <mxGeometry x="580" y="40" width="20" height="20" as="geometry" />
        </mxCell>
        <mxCell id="JXRzYk3_wMIeTqWAo9iV-41" value="" style="whiteSpace=wrap;html=1;aspect=fixed;opacity=50;fillColor=none;" vertex="1" parent="1">
          <mxGeometry x="580" y="60" width="20" height="20" as="geometry" />
        </mxCell>
        <mxCell id="JXRzYk3_wMIeTqWAo9iV-42" value="" style="whiteSpace=wrap;html=1;aspect=fixed;opacity=50;fillColor=none;" vertex="1" parent="1">
          <mxGeometry x="600" width="20" height="20" as="geometry" />
        </mxCell>
        <mxCell id="JXRzYk3_wMIeTqWAo9iV-43" value="" style="whiteSpace=wrap;html=1;aspect=fixed;opacity=50;fillColor=none;" vertex="1" parent="1">
          <mxGeometry x="600" y="20" width="20" height="20" as="geometry" />
        </mxCell>
        <mxCell id="JXRzYk3_wMIeTqWAo9iV-44" value="" style="whiteSpace=wrap;html=1;aspect=fixed;opacity=50;fillColor=none;" vertex="1" parent="1">
          <mxGeometry x="600" y="40" width="20" height="20" as="geometry" />
        </mxCell>
        <mxCell id="JXRzYk3_wMIeTqWAo9iV-45" value="" style="whiteSpace=wrap;html=1;aspect=fixed;opacity=50;fillColor=none;" vertex="1" parent="1">
          <mxGeometry x="600" y="60" width="20" height="20" as="geometry" />
        </mxCell>
        <mxCell id="JXRzYk3_wMIeTqWAo9iV-46" value="" style="whiteSpace=wrap;html=1;aspect=fixed;opacity=50;fillColor=none;" vertex="1" parent="1">
          <mxGeometry x="620" width="20" height="20" as="geometry" />
        </mxCell>
        <mxCell id="JXRzYk3_wMIeTqWAo9iV-47" value="" style="whiteSpace=wrap;html=1;aspect=fixed;opacity=50;fillColor=none;" vertex="1" parent="1">
          <mxGeometry x="620" y="20" width="20" height="20" as="geometry" />
        </mxCell>
        <mxCell id="JXRzYk3_wMIeTqWAo9iV-48" value="" style="whiteSpace=wrap;html=1;aspect=fixed;opacity=50;fillColor=none;" vertex="1" parent="1">
          <mxGeometry x="620" y="40" width="20" height="20" as="geometry" />
        </mxCell>
        <mxCell id="JXRzYk3_wMIeTqWAo9iV-49" value="" style="whiteSpace=wrap;html=1;aspect=fixed;opacity=50;fillColor=none;" vertex="1" parent="1">
          <mxGeometry x="620" y="60" width="20" height="20" as="geometry" />
        </mxCell>
        <mxCell id="JXRzYk3_wMIeTqWAo9iV-50" value="" style="whiteSpace=wrap;html=1;aspect=fixed;opacity=50;fillColor=none;" vertex="1" parent="1">
          <mxGeometry x="640" width="20" height="20" as="geometry" />
        </mxCell>
        <mxCell id="JXRzYk3_wMIeTqWAo9iV-51" value="" style="whiteSpace=wrap;html=1;aspect=fixed;opacity=50;fillColor=none;" vertex="1" parent="1">
          <mxGeometry x="640" y="20" width="20" height="20" as="geometry" />
        </mxCell>
        <mxCell id="JXRzYk3_wMIeTqWAo9iV-52" value="" style="whiteSpace=wrap;html=1;aspect=fixed;opacity=50;fillColor=none;" vertex="1" parent="1">
          <mxGeometry x="640" y="40" width="20" height="20" as="geometry" />
        </mxCell>
        <mxCell id="JXRzYk3_wMIeTqWAo9iV-53" value="" style="whiteSpace=wrap;html=1;aspect=fixed;opacity=50;fillColor=none;" vertex="1" parent="1">
          <mxGeometry x="640" y="60" width="20" height="20" as="geometry" />
        </mxCell>
        <mxCell id="JXRzYk3_wMIeTqWAo9iV-54" value="" style="whiteSpace=wrap;html=1;aspect=fixed;opacity=50;fillColor=none;" vertex="1" parent="1">
          <mxGeometry x="660" width="20" height="20" as="geometry" />
        </mxCell>
        <mxCell id="JXRzYk3_wMIeTqWAo9iV-55" value="" style="whiteSpace=wrap;html=1;aspect=fixed;opacity=50;fillColor=none;" vertex="1" parent="1">
          <mxGeometry x="660" y="20" width="20" height="20" as="geometry" />
        </mxCell>
        <mxCell id="JXRzYk3_wMIeTqWAo9iV-56" value="" style="whiteSpace=wrap;html=1;aspect=fixed;opacity=50;fillColor=none;" vertex="1" parent="1">
          <mxGeometry x="660" y="40" width="20" height="20" as="geometry" />
        </mxCell>
        <mxCell id="JXRzYk3_wMIeTqWAo9iV-57" value="" style="whiteSpace=wrap;html=1;aspect=fixed;opacity=50;fillColor=none;" vertex="1" parent="1">
          <mxGeometry x="660" y="60" width="20" height="20" as="geometry" />
        </mxCell>
        <mxCell id="JXRzYk3_wMIeTqWAo9iV-58" value="" style="whiteSpace=wrap;html=1;aspect=fixed;opacity=50;fillColor=#666666;strokeColor=default;fontColor=default;" vertex="1" parent="1">
          <mxGeometry x="680" width="20" height="20" as="geometry" />
        </mxCell>
        <mxCell id="JXRzYk3_wMIeTqWAo9iV-59" value="" style="whiteSpace=wrap;html=1;aspect=fixed;opacity=50;fillColor=#666666;strokeColor=default;fontColor=default;" vertex="1" parent="1">
          <mxGeometry x="680" y="20" width="20" height="20" as="geometry" />
        </mxCell>
        <mxCell id="JXRzYk3_wMIeTqWAo9iV-60" value="" style="whiteSpace=wrap;html=1;aspect=fixed;opacity=50;fillColor=#666666;strokeColor=default;fontColor=default;" vertex="1" parent="1">
          <mxGeometry x="680" y="40" width="20" height="20" as="geometry" />
        </mxCell>
        <mxCell id="JXRzYk3_wMIeTqWAo9iV-61" value="" style="whiteSpace=wrap;html=1;aspect=fixed;opacity=50;fillColor=#666666;strokeColor=default;fontColor=default;" vertex="1" parent="1">
          <mxGeometry x="680" y="60" width="20" height="20" as="geometry" />
        </mxCell>
        <mxCell id="JXRzYk3_wMIeTqWAo9iV-62" value="" style="whiteSpace=wrap;html=1;aspect=fixed;opacity=50;fillColor=#666666;strokeColor=default;fontColor=default;" vertex="1" parent="1">
          <mxGeometry x="700" width="20" height="20" as="geometry" />
        </mxCell>
        <mxCell id="JXRzYk3_wMIeTqWAo9iV-63" value="" style="whiteSpace=wrap;html=1;aspect=fixed;opacity=50;fillColor=#666666;strokeColor=default;fontColor=default;" vertex="1" parent="1">
          <mxGeometry x="700" y="20" width="20" height="20" as="geometry" />
        </mxCell>
        <mxCell id="JXRzYk3_wMIeTqWAo9iV-64" value="" style="whiteSpace=wrap;html=1;aspect=fixed;opacity=50;fillColor=#666666;strokeColor=default;fontColor=default;" vertex="1" parent="1">
          <mxGeometry x="700" y="40" width="20" height="20" as="geometry" />
        </mxCell>
        <mxCell id="JXRzYk3_wMIeTqWAo9iV-65" value="" style="whiteSpace=wrap;html=1;aspect=fixed;opacity=50;fillColor=#666666;strokeColor=default;fontColor=default;" vertex="1" parent="1">
          <mxGeometry x="700" y="60" width="20" height="20" as="geometry" />
        </mxCell>
        <mxCell id="JXRzYk3_wMIeTqWAo9iV-66" value="" style="whiteSpace=wrap;html=1;aspect=fixed;opacity=50;fillColor=none;" vertex="1" parent="1">
          <mxGeometry x="400" y="80" width="20" height="20" as="geometry" />
        </mxCell>
        <mxCell id="JXRzYk3_wMIeTqWAo9iV-67" value="" style="whiteSpace=wrap;html=1;aspect=fixed;opacity=50;fillColor=none;" vertex="1" parent="1">
          <mxGeometry x="400" y="100" width="20" height="20" as="geometry" />
        </mxCell>
        <mxCell id="JXRzYk3_wMIeTqWAo9iV-68" value="" style="whiteSpace=wrap;html=1;aspect=fixed;opacity=50;fillColor=none;" vertex="1" parent="1">
          <mxGeometry x="400" y="120" width="20" height="20" as="geometry" />
        </mxCell>
        <mxCell id="JXRzYk3_wMIeTqWAo9iV-69" value="" style="whiteSpace=wrap;html=1;aspect=fixed;opacity=50;fillColor=none;" vertex="1" parent="1">
          <mxGeometry x="400" y="140" width="20" height="20" as="geometry" />
        </mxCell>
        <mxCell id="JXRzYk3_wMIeTqWAo9iV-70" value="" style="whiteSpace=wrap;html=1;aspect=fixed;opacity=50;fillColor=none;" vertex="1" parent="1">
          <mxGeometry x="420" y="80" width="20" height="20" as="geometry" />
        </mxCell>
        <mxCell id="JXRzYk3_wMIeTqWAo9iV-71" value="" style="whiteSpace=wrap;html=1;aspect=fixed;opacity=50;fillColor=none;" vertex="1" parent="1">
          <mxGeometry x="420" y="100" width="20" height="20" as="geometry" />
        </mxCell>
        <mxCell id="JXRzYk3_wMIeTqWAo9iV-72" value="" style="whiteSpace=wrap;html=1;aspect=fixed;opacity=50;fillColor=none;" vertex="1" parent="1">
          <mxGeometry x="420" y="120" width="20" height="20" as="geometry" />
        </mxCell>
        <mxCell id="JXRzYk3_wMIeTqWAo9iV-73" value="" style="whiteSpace=wrap;html=1;aspect=fixed;opacity=50;fillColor=none;" vertex="1" parent="1">
          <mxGeometry x="420" y="140" width="20" height="20" as="geometry" />
        </mxCell>
        <mxCell id="JXRzYk3_wMIeTqWAo9iV-74" value="" style="whiteSpace=wrap;html=1;aspect=fixed;opacity=50;fillColor=none;" vertex="1" parent="1">
          <mxGeometry x="440" y="80" width="20" height="20" as="geometry" />
        </mxCell>
        <mxCell id="JXRzYk3_wMIeTqWAo9iV-75" value="" style="whiteSpace=wrap;html=1;aspect=fixed;opacity=50;fillColor=none;" vertex="1" parent="1">
          <mxGeometry x="440" y="100" width="20" height="20" as="geometry" />
        </mxCell>
        <mxCell id="JXRzYk3_wMIeTqWAo9iV-76" value="" style="whiteSpace=wrap;html=1;aspect=fixed;opacity=50;fillColor=none;" vertex="1" parent="1">
          <mxGeometry x="440" y="120" width="20" height="20" as="geometry" />
        </mxCell>
        <mxCell id="JXRzYk3_wMIeTqWAo9iV-77" value="" style="whiteSpace=wrap;html=1;aspect=fixed;opacity=50;fillColor=none;" vertex="1" parent="1">
          <mxGeometry x="440" y="140" width="20" height="20" as="geometry" />
        </mxCell>
        <mxCell id="JXRzYk3_wMIeTqWAo9iV-78" value="" style="whiteSpace=wrap;html=1;aspect=fixed;opacity=50;fillColor=none;" vertex="1" parent="1">
          <mxGeometry x="460" y="80" width="20" height="20" as="geometry" />
        </mxCell>
        <mxCell id="JXRzYk3_wMIeTqWAo9iV-79" value="" style="whiteSpace=wrap;html=1;aspect=fixed;opacity=50;fillColor=none;" vertex="1" parent="1">
          <mxGeometry x="460" y="100" width="20" height="20" as="geometry" />
        </mxCell>
        <mxCell id="JXRzYk3_wMIeTqWAo9iV-80" value="" style="whiteSpace=wrap;html=1;aspect=fixed;opacity=50;fillColor=none;" vertex="1" parent="1">
          <mxGeometry x="460" y="120" width="20" height="20" as="geometry" />
        </mxCell>
        <mxCell id="JXRzYk3_wMIeTqWAo9iV-81" value="" style="whiteSpace=wrap;html=1;aspect=fixed;opacity=50;fillColor=none;" vertex="1" parent="1">
          <mxGeometry x="460" y="140" width="20" height="20" as="geometry" />
        </mxCell>
        <mxCell id="JXRzYk3_wMIeTqWAo9iV-82" value="" style="whiteSpace=wrap;html=1;aspect=fixed;opacity=50;fillColor=none;" vertex="1" parent="1">
          <mxGeometry x="480" y="80" width="20" height="20" as="geometry" />
        </mxCell>
        <mxCell id="JXRzYk3_wMIeTqWAo9iV-83" value="" style="whiteSpace=wrap;html=1;aspect=fixed;opacity=50;fillColor=none;" vertex="1" parent="1">
          <mxGeometry x="480" y="100" width="20" height="20" as="geometry" />
        </mxCell>
        <mxCell id="JXRzYk3_wMIeTqWAo9iV-84" value="" style="whiteSpace=wrap;html=1;aspect=fixed;opacity=50;fillColor=none;" vertex="1" parent="1">
          <mxGeometry x="480" y="120" width="20" height="20" as="geometry" />
        </mxCell>
        <mxCell id="JXRzYk3_wMIeTqWAo9iV-85" value="" style="whiteSpace=wrap;html=1;aspect=fixed;opacity=50;fillColor=none;" vertex="1" parent="1">
          <mxGeometry x="480" y="140" width="20" height="20" as="geometry" />
        </mxCell>
        <mxCell id="JXRzYk3_wMIeTqWAo9iV-86" value="" style="whiteSpace=wrap;html=1;aspect=fixed;opacity=50;fillColor=none;" vertex="1" parent="1">
          <mxGeometry x="500" y="80" width="20" height="20" as="geometry" />
        </mxCell>
        <mxCell id="JXRzYk3_wMIeTqWAo9iV-87" value="" style="whiteSpace=wrap;html=1;aspect=fixed;opacity=50;fillColor=none;" vertex="1" parent="1">
          <mxGeometry x="500" y="100" width="20" height="20" as="geometry" />
        </mxCell>
        <mxCell id="JXRzYk3_wMIeTqWAo9iV-88" value="" style="whiteSpace=wrap;html=1;aspect=fixed;opacity=50;fillColor=none;" vertex="1" parent="1">
          <mxGeometry x="500" y="120" width="20" height="20" as="geometry" />
        </mxCell>
        <mxCell id="JXRzYk3_wMIeTqWAo9iV-89" value="" style="whiteSpace=wrap;html=1;aspect=fixed;opacity=50;fillColor=none;" vertex="1" parent="1">
          <mxGeometry x="500" y="140" width="20" height="20" as="geometry" />
        </mxCell>
        <mxCell id="JXRzYk3_wMIeTqWAo9iV-90" value="" style="whiteSpace=wrap;html=1;aspect=fixed;opacity=50;fillColor=none;" vertex="1" parent="1">
          <mxGeometry x="520" y="80" width="20" height="20" as="geometry" />
        </mxCell>
        <mxCell id="JXRzYk3_wMIeTqWAo9iV-91" value="" style="whiteSpace=wrap;html=1;aspect=fixed;opacity=50;fillColor=none;" vertex="1" parent="1">
          <mxGeometry x="520" y="100" width="20" height="20" as="geometry" />
        </mxCell>
        <mxCell id="JXRzYk3_wMIeTqWAo9iV-92" value="" style="whiteSpace=wrap;html=1;aspect=fixed;opacity=50;fillColor=none;" vertex="1" parent="1">
          <mxGeometry x="520" y="120" width="20" height="20" as="geometry" />
        </mxCell>
        <mxCell id="JXRzYk3_wMIeTqWAo9iV-93" value="" style="whiteSpace=wrap;html=1;aspect=fixed;opacity=50;fillColor=none;" vertex="1" parent="1">
          <mxGeometry x="520" y="140" width="20" height="20" as="geometry" />
        </mxCell>
        <mxCell id="JXRzYk3_wMIeTqWAo9iV-94" value="" style="whiteSpace=wrap;html=1;aspect=fixed;opacity=50;fillColor=none;" vertex="1" parent="1">
          <mxGeometry x="540" y="80" width="20" height="20" as="geometry" />
        </mxCell>
        <mxCell id="JXRzYk3_wMIeTqWAo9iV-95" value="" style="whiteSpace=wrap;html=1;aspect=fixed;opacity=50;fillColor=none;" vertex="1" parent="1">
          <mxGeometry x="540" y="100" width="20" height="20" as="geometry" />
        </mxCell>
        <mxCell id="JXRzYk3_wMIeTqWAo9iV-96" value="" style="whiteSpace=wrap;html=1;aspect=fixed;opacity=50;fillColor=none;" vertex="1" parent="1">
          <mxGeometry x="540" y="120" width="20" height="20" as="geometry" />
        </mxCell>
        <mxCell id="JXRzYk3_wMIeTqWAo9iV-97" value="" style="whiteSpace=wrap;html=1;aspect=fixed;opacity=50;fillColor=none;" vertex="1" parent="1">
          <mxGeometry x="540" y="140" width="20" height="20" as="geometry" />
        </mxCell>
        <mxCell id="JXRzYk3_wMIeTqWAo9iV-98" value="" style="whiteSpace=wrap;html=1;aspect=fixed;opacity=50;fillColor=none;" vertex="1" parent="1">
          <mxGeometry x="560" y="80" width="20" height="20" as="geometry" />
        </mxCell>
        <mxCell id="JXRzYk3_wMIeTqWAo9iV-99" value="" style="whiteSpace=wrap;html=1;aspect=fixed;opacity=50;fillColor=none;" vertex="1" parent="1">
          <mxGeometry x="560" y="100" width="20" height="20" as="geometry" />
        </mxCell>
        <mxCell id="JXRzYk3_wMIeTqWAo9iV-100" value="" style="whiteSpace=wrap;html=1;aspect=fixed;opacity=50;fillColor=none;" vertex="1" parent="1">
          <mxGeometry x="560" y="120" width="20" height="20" as="geometry" />
        </mxCell>
        <mxCell id="JXRzYk3_wMIeTqWAo9iV-101" value="" style="whiteSpace=wrap;html=1;aspect=fixed;opacity=50;fillColor=none;" vertex="1" parent="1">
          <mxGeometry x="560" y="140" width="20" height="20" as="geometry" />
        </mxCell>
        <mxCell id="JXRzYk3_wMIeTqWAo9iV-102" value="" style="whiteSpace=wrap;html=1;aspect=fixed;opacity=50;fillColor=none;" vertex="1" parent="1">
          <mxGeometry x="580" y="80" width="20" height="20" as="geometry" />
        </mxCell>
        <mxCell id="JXRzYk3_wMIeTqWAo9iV-103" value="" style="whiteSpace=wrap;html=1;aspect=fixed;opacity=50;fillColor=none;" vertex="1" parent="1">
          <mxGeometry x="580" y="100" width="20" height="20" as="geometry" />
        </mxCell>
        <mxCell id="JXRzYk3_wMIeTqWAo9iV-104" value="" style="whiteSpace=wrap;html=1;aspect=fixed;opacity=50;fillColor=none;" vertex="1" parent="1">
          <mxGeometry x="580" y="120" width="20" height="20" as="geometry" />
        </mxCell>
        <mxCell id="JXRzYk3_wMIeTqWAo9iV-105" value="" style="whiteSpace=wrap;html=1;aspect=fixed;opacity=50;fillColor=none;" vertex="1" parent="1">
          <mxGeometry x="580" y="140" width="20" height="20" as="geometry" />
        </mxCell>
        <mxCell id="JXRzYk3_wMIeTqWAo9iV-106" value="" style="whiteSpace=wrap;html=1;aspect=fixed;opacity=50;fillColor=none;" vertex="1" parent="1">
          <mxGeometry x="600" y="80" width="20" height="20" as="geometry" />
        </mxCell>
        <mxCell id="JXRzYk3_wMIeTqWAo9iV-107" value="" style="whiteSpace=wrap;html=1;aspect=fixed;opacity=50;fillColor=none;" vertex="1" parent="1">
          <mxGeometry x="600" y="100" width="20" height="20" as="geometry" />
        </mxCell>
        <mxCell id="JXRzYk3_wMIeTqWAo9iV-108" value="" style="whiteSpace=wrap;html=1;aspect=fixed;opacity=50;fillColor=none;" vertex="1" parent="1">
          <mxGeometry x="600" y="120" width="20" height="20" as="geometry" />
        </mxCell>
        <mxCell id="JXRzYk3_wMIeTqWAo9iV-109" value="" style="whiteSpace=wrap;html=1;aspect=fixed;opacity=50;fillColor=none;" vertex="1" parent="1">
          <mxGeometry x="600" y="140" width="20" height="20" as="geometry" />
        </mxCell>
        <mxCell id="JXRzYk3_wMIeTqWAo9iV-110" value="" style="whiteSpace=wrap;html=1;aspect=fixed;opacity=50;fillColor=none;" vertex="1" parent="1">
          <mxGeometry x="620" y="80" width="20" height="20" as="geometry" />
        </mxCell>
        <mxCell id="JXRzYk3_wMIeTqWAo9iV-111" value="" style="whiteSpace=wrap;html=1;aspect=fixed;opacity=50;fillColor=none;" vertex="1" parent="1">
          <mxGeometry x="620" y="100" width="20" height="20" as="geometry" />
        </mxCell>
        <mxCell id="JXRzYk3_wMIeTqWAo9iV-112" value="" style="whiteSpace=wrap;html=1;aspect=fixed;opacity=50;fillColor=none;" vertex="1" parent="1">
          <mxGeometry x="620" y="120" width="20" height="20" as="geometry" />
        </mxCell>
        <mxCell id="JXRzYk3_wMIeTqWAo9iV-113" value="" style="whiteSpace=wrap;html=1;aspect=fixed;opacity=50;fillColor=none;" vertex="1" parent="1">
          <mxGeometry x="620" y="140" width="20" height="20" as="geometry" />
        </mxCell>
        <mxCell id="JXRzYk3_wMIeTqWAo9iV-114" value="" style="whiteSpace=wrap;html=1;aspect=fixed;opacity=50;fillColor=none;" vertex="1" parent="1">
          <mxGeometry x="640" y="80" width="20" height="20" as="geometry" />
        </mxCell>
        <mxCell id="JXRzYk3_wMIeTqWAo9iV-115" value="" style="whiteSpace=wrap;html=1;aspect=fixed;opacity=50;fillColor=none;" vertex="1" parent="1">
          <mxGeometry x="640" y="100" width="20" height="20" as="geometry" />
        </mxCell>
        <mxCell id="JXRzYk3_wMIeTqWAo9iV-116" value="" style="whiteSpace=wrap;html=1;aspect=fixed;opacity=50;fillColor=none;" vertex="1" parent="1">
          <mxGeometry x="640" y="120" width="20" height="20" as="geometry" />
        </mxCell>
        <mxCell id="JXRzYk3_wMIeTqWAo9iV-117" value="" style="whiteSpace=wrap;html=1;aspect=fixed;opacity=50;fillColor=none;" vertex="1" parent="1">
          <mxGeometry x="640" y="140" width="20" height="20" as="geometry" />
        </mxCell>
        <mxCell id="JXRzYk3_wMIeTqWAo9iV-118" value="" style="whiteSpace=wrap;html=1;aspect=fixed;opacity=50;fillColor=none;" vertex="1" parent="1">
          <mxGeometry x="660" y="80" width="20" height="20" as="geometry" />
        </mxCell>
        <mxCell id="JXRzYk3_wMIeTqWAo9iV-119" value="" style="whiteSpace=wrap;html=1;aspect=fixed;opacity=50;fillColor=none;" vertex="1" parent="1">
          <mxGeometry x="660" y="100" width="20" height="20" as="geometry" />
        </mxCell>
        <mxCell id="JXRzYk3_wMIeTqWAo9iV-120" value="" style="whiteSpace=wrap;html=1;aspect=fixed;opacity=50;fillColor=none;" vertex="1" parent="1">
          <mxGeometry x="660" y="120" width="20" height="20" as="geometry" />
        </mxCell>
        <mxCell id="JXRzYk3_wMIeTqWAo9iV-121" value="" style="whiteSpace=wrap;html=1;aspect=fixed;opacity=50;fillColor=none;" vertex="1" parent="1">
          <mxGeometry x="660" y="140" width="20" height="20" as="geometry" />
        </mxCell>
        <mxCell id="JXRzYk3_wMIeTqWAo9iV-122" value="" style="whiteSpace=wrap;html=1;aspect=fixed;opacity=50;fillColor=#666666;strokeColor=default;fontColor=default;" vertex="1" parent="1">
          <mxGeometry x="680" y="80" width="20" height="20" as="geometry" />
        </mxCell>
        <mxCell id="JXRzYk3_wMIeTqWAo9iV-123" value="" style="whiteSpace=wrap;html=1;aspect=fixed;opacity=50;fillColor=#666666;strokeColor=default;fontColor=default;" vertex="1" parent="1">
          <mxGeometry x="680" y="100" width="20" height="20" as="geometry" />
        </mxCell>
        <mxCell id="JXRzYk3_wMIeTqWAo9iV-124" value="" style="whiteSpace=wrap;html=1;aspect=fixed;opacity=50;fillColor=#666666;strokeColor=default;fontColor=default;" vertex="1" parent="1">
          <mxGeometry x="680" y="120" width="20" height="20" as="geometry" />
        </mxCell>
        <mxCell id="JXRzYk3_wMIeTqWAo9iV-125" value="" style="whiteSpace=wrap;html=1;aspect=fixed;opacity=50;fillColor=#666666;strokeColor=default;fontColor=default;" vertex="1" parent="1">
          <mxGeometry x="680" y="140" width="20" height="20" as="geometry" />
        </mxCell>
        <mxCell id="JXRzYk3_wMIeTqWAo9iV-126" value="" style="whiteSpace=wrap;html=1;aspect=fixed;opacity=50;fillColor=#666666;strokeColor=default;fontColor=default;" vertex="1" parent="1">
          <mxGeometry x="700" y="80" width="20" height="20" as="geometry" />
        </mxCell>
        <mxCell id="JXRzYk3_wMIeTqWAo9iV-127" value="" style="whiteSpace=wrap;html=1;aspect=fixed;opacity=50;fillColor=#666666;strokeColor=default;fontColor=default;" vertex="1" parent="1">
          <mxGeometry x="700" y="100" width="20" height="20" as="geometry" />
        </mxCell>
        <mxCell id="JXRzYk3_wMIeTqWAo9iV-128" value="" style="whiteSpace=wrap;html=1;aspect=fixed;opacity=50;fillColor=#666666;strokeColor=default;fontColor=default;" vertex="1" parent="1">
          <mxGeometry x="700" y="120" width="20" height="20" as="geometry" />
        </mxCell>
        <mxCell id="JXRzYk3_wMIeTqWAo9iV-129" value="" style="whiteSpace=wrap;html=1;aspect=fixed;opacity=50;fillColor=#666666;strokeColor=default;fontColor=default;" vertex="1" parent="1">
          <mxGeometry x="700" y="140" width="20" height="20" as="geometry" />
        </mxCell>
        <mxCell id="JXRzYk3_wMIeTqWAo9iV-130" value="" style="whiteSpace=wrap;html=1;aspect=fixed;opacity=50;fillColor=none;" vertex="1" parent="1">
          <mxGeometry x="400" y="160" width="20" height="20" as="geometry" />
        </mxCell>
        <mxCell id="JXRzYk3_wMIeTqWAo9iV-131" value="" style="whiteSpace=wrap;html=1;aspect=fixed;opacity=50;fillColor=none;" vertex="1" parent="1">
          <mxGeometry x="400" y="180" width="20" height="20" as="geometry" />
        </mxCell>
        <mxCell id="JXRzYk3_wMIeTqWAo9iV-132" value="" style="whiteSpace=wrap;html=1;aspect=fixed;opacity=50;fillColor=none;" vertex="1" parent="1">
          <mxGeometry x="400" y="200" width="20" height="20" as="geometry" />
        </mxCell>
        <mxCell id="JXRzYk3_wMIeTqWAo9iV-133" value="" style="whiteSpace=wrap;html=1;aspect=fixed;opacity=50;fillColor=none;" vertex="1" parent="1">
          <mxGeometry x="400" y="220" width="20" height="20" as="geometry" />
        </mxCell>
        <mxCell id="JXRzYk3_wMIeTqWAo9iV-134" value="" style="whiteSpace=wrap;html=1;aspect=fixed;opacity=50;fillColor=none;" vertex="1" parent="1">
          <mxGeometry x="420" y="160" width="20" height="20" as="geometry" />
        </mxCell>
        <mxCell id="JXRzYk3_wMIeTqWAo9iV-135" value="" style="whiteSpace=wrap;html=1;aspect=fixed;opacity=50;fillColor=none;" vertex="1" parent="1">
          <mxGeometry x="420" y="180" width="20" height="20" as="geometry" />
        </mxCell>
        <mxCell id="JXRzYk3_wMIeTqWAo9iV-136" value="" style="whiteSpace=wrap;html=1;aspect=fixed;opacity=50;fillColor=none;" vertex="1" parent="1">
          <mxGeometry x="420" y="200" width="20" height="20" as="geometry" />
        </mxCell>
        <mxCell id="JXRzYk3_wMIeTqWAo9iV-137" value="" style="whiteSpace=wrap;html=1;aspect=fixed;opacity=50;fillColor=none;" vertex="1" parent="1">
          <mxGeometry x="420" y="220" width="20" height="20" as="geometry" />
        </mxCell>
        <mxCell id="JXRzYk3_wMIeTqWAo9iV-138" value="" style="whiteSpace=wrap;html=1;aspect=fixed;opacity=50;fillColor=none;" vertex="1" parent="1">
          <mxGeometry x="440" y="160" width="20" height="20" as="geometry" />
        </mxCell>
        <mxCell id="JXRzYk3_wMIeTqWAo9iV-139" value="" style="whiteSpace=wrap;html=1;aspect=fixed;opacity=50;fillColor=none;" vertex="1" parent="1">
          <mxGeometry x="440" y="180" width="20" height="20" as="geometry" />
        </mxCell>
        <mxCell id="JXRzYk3_wMIeTqWAo9iV-140" value="" style="whiteSpace=wrap;html=1;aspect=fixed;opacity=50;fillColor=none;" vertex="1" parent="1">
          <mxGeometry x="440" y="200" width="20" height="20" as="geometry" />
        </mxCell>
        <mxCell id="JXRzYk3_wMIeTqWAo9iV-141" value="" style="whiteSpace=wrap;html=1;aspect=fixed;opacity=50;fillColor=none;" vertex="1" parent="1">
          <mxGeometry x="440" y="220" width="20" height="20" as="geometry" />
        </mxCell>
        <mxCell id="JXRzYk3_wMIeTqWAo9iV-142" value="" style="whiteSpace=wrap;html=1;aspect=fixed;opacity=50;fillColor=none;" vertex="1" parent="1">
          <mxGeometry x="460" y="160" width="20" height="20" as="geometry" />
        </mxCell>
        <mxCell id="JXRzYk3_wMIeTqWAo9iV-143" value="" style="whiteSpace=wrap;html=1;aspect=fixed;opacity=50;fillColor=none;" vertex="1" parent="1">
          <mxGeometry x="460" y="180" width="20" height="20" as="geometry" />
        </mxCell>
        <mxCell id="JXRzYk3_wMIeTqWAo9iV-144" value="" style="whiteSpace=wrap;html=1;aspect=fixed;opacity=50;fillColor=none;" vertex="1" parent="1">
          <mxGeometry x="460" y="200" width="20" height="20" as="geometry" />
        </mxCell>
        <mxCell id="JXRzYk3_wMIeTqWAo9iV-145" value="" style="whiteSpace=wrap;html=1;aspect=fixed;opacity=50;fillColor=none;" vertex="1" parent="1">
          <mxGeometry x="460" y="220" width="20" height="20" as="geometry" />
        </mxCell>
        <mxCell id="JXRzYk3_wMIeTqWAo9iV-146" value="" style="whiteSpace=wrap;html=1;aspect=fixed;opacity=50;fillColor=none;" vertex="1" parent="1">
          <mxGeometry x="480" y="160" width="20" height="20" as="geometry" />
        </mxCell>
        <mxCell id="JXRzYk3_wMIeTqWAo9iV-147" value="" style="whiteSpace=wrap;html=1;aspect=fixed;opacity=50;fillColor=none;" vertex="1" parent="1">
          <mxGeometry x="480" y="180" width="20" height="20" as="geometry" />
        </mxCell>
        <mxCell id="JXRzYk3_wMIeTqWAo9iV-148" value="" style="whiteSpace=wrap;html=1;aspect=fixed;opacity=50;fillColor=none;" vertex="1" parent="1">
          <mxGeometry x="480" y="200" width="20" height="20" as="geometry" />
        </mxCell>
        <mxCell id="JXRzYk3_wMIeTqWAo9iV-149" value="" style="whiteSpace=wrap;html=1;aspect=fixed;opacity=50;fillColor=none;" vertex="1" parent="1">
          <mxGeometry x="480" y="220" width="20" height="20" as="geometry" />
        </mxCell>
        <mxCell id="JXRzYk3_wMIeTqWAo9iV-150" value="" style="whiteSpace=wrap;html=1;aspect=fixed;opacity=50;fillColor=none;" vertex="1" parent="1">
          <mxGeometry x="500" y="160" width="20" height="20" as="geometry" />
        </mxCell>
        <mxCell id="JXRzYk3_wMIeTqWAo9iV-151" value="" style="whiteSpace=wrap;html=1;aspect=fixed;opacity=50;fillColor=none;" vertex="1" parent="1">
          <mxGeometry x="500" y="180" width="20" height="20" as="geometry" />
        </mxCell>
        <mxCell id="JXRzYk3_wMIeTqWAo9iV-152" value="" style="whiteSpace=wrap;html=1;aspect=fixed;opacity=50;fillColor=none;" vertex="1" parent="1">
          <mxGeometry x="500" y="200" width="20" height="20" as="geometry" />
        </mxCell>
        <mxCell id="JXRzYk3_wMIeTqWAo9iV-153" value="" style="whiteSpace=wrap;html=1;aspect=fixed;opacity=50;fillColor=none;" vertex="1" parent="1">
          <mxGeometry x="500" y="220" width="20" height="20" as="geometry" />
        </mxCell>
        <mxCell id="JXRzYk3_wMIeTqWAo9iV-154" value="" style="whiteSpace=wrap;html=1;aspect=fixed;opacity=50;fillColor=none;" vertex="1" parent="1">
          <mxGeometry x="520" y="160" width="20" height="20" as="geometry" />
        </mxCell>
        <mxCell id="JXRzYk3_wMIeTqWAo9iV-155" value="" style="whiteSpace=wrap;html=1;aspect=fixed;opacity=50;fillColor=none;" vertex="1" parent="1">
          <mxGeometry x="520" y="180" width="20" height="20" as="geometry" />
        </mxCell>
        <mxCell id="JXRzYk3_wMIeTqWAo9iV-156" value="" style="whiteSpace=wrap;html=1;aspect=fixed;opacity=50;fillColor=none;" vertex="1" parent="1">
          <mxGeometry x="520" y="200" width="20" height="20" as="geometry" />
        </mxCell>
        <mxCell id="JXRzYk3_wMIeTqWAo9iV-157" value="" style="whiteSpace=wrap;html=1;aspect=fixed;opacity=50;fillColor=none;" vertex="1" parent="1">
          <mxGeometry x="520" y="220" width="20" height="20" as="geometry" />
        </mxCell>
        <mxCell id="JXRzYk3_wMIeTqWAo9iV-158" value="" style="whiteSpace=wrap;html=1;aspect=fixed;opacity=50;fillColor=none;" vertex="1" parent="1">
          <mxGeometry x="540" y="160" width="20" height="20" as="geometry" />
        </mxCell>
        <mxCell id="JXRzYk3_wMIeTqWAo9iV-159" value="" style="whiteSpace=wrap;html=1;aspect=fixed;opacity=50;fillColor=none;" vertex="1" parent="1">
          <mxGeometry x="540" y="180" width="20" height="20" as="geometry" />
        </mxCell>
        <mxCell id="JXRzYk3_wMIeTqWAo9iV-160" value="" style="whiteSpace=wrap;html=1;aspect=fixed;opacity=50;fillColor=none;" vertex="1" parent="1">
          <mxGeometry x="540" y="200" width="20" height="20" as="geometry" />
        </mxCell>
        <mxCell id="JXRzYk3_wMIeTqWAo9iV-161" value="" style="whiteSpace=wrap;html=1;aspect=fixed;opacity=50;fillColor=none;" vertex="1" parent="1">
          <mxGeometry x="540" y="220" width="20" height="20" as="geometry" />
        </mxCell>
        <mxCell id="JXRzYk3_wMIeTqWAo9iV-162" value="" style="whiteSpace=wrap;html=1;aspect=fixed;opacity=50;fillColor=none;" vertex="1" parent="1">
          <mxGeometry x="560" y="160" width="20" height="20" as="geometry" />
        </mxCell>
        <mxCell id="JXRzYk3_wMIeTqWAo9iV-163" value="" style="whiteSpace=wrap;html=1;aspect=fixed;opacity=50;fillColor=none;" vertex="1" parent="1">
          <mxGeometry x="560" y="180" width="20" height="20" as="geometry" />
        </mxCell>
        <mxCell id="JXRzYk3_wMIeTqWAo9iV-164" value="" style="whiteSpace=wrap;html=1;aspect=fixed;opacity=50;fillColor=none;" vertex="1" parent="1">
          <mxGeometry x="560" y="200" width="20" height="20" as="geometry" />
        </mxCell>
        <mxCell id="JXRzYk3_wMIeTqWAo9iV-165" value="" style="whiteSpace=wrap;html=1;aspect=fixed;opacity=50;fillColor=none;" vertex="1" parent="1">
          <mxGeometry x="560" y="220" width="20" height="20" as="geometry" />
        </mxCell>
        <mxCell id="JXRzYk3_wMIeTqWAo9iV-166" value="" style="whiteSpace=wrap;html=1;aspect=fixed;opacity=50;fillColor=none;" vertex="1" parent="1">
          <mxGeometry x="580" y="160" width="20" height="20" as="geometry" />
        </mxCell>
        <mxCell id="JXRzYk3_wMIeTqWAo9iV-167" value="" style="whiteSpace=wrap;html=1;aspect=fixed;opacity=50;fillColor=none;" vertex="1" parent="1">
          <mxGeometry x="580" y="180" width="20" height="20" as="geometry" />
        </mxCell>
        <mxCell id="JXRzYk3_wMIeTqWAo9iV-168" value="" style="whiteSpace=wrap;html=1;aspect=fixed;opacity=50;fillColor=none;" vertex="1" parent="1">
          <mxGeometry x="580" y="200" width="20" height="20" as="geometry" />
        </mxCell>
        <mxCell id="JXRzYk3_wMIeTqWAo9iV-169" value="" style="whiteSpace=wrap;html=1;aspect=fixed;opacity=50;fillColor=none;" vertex="1" parent="1">
          <mxGeometry x="580" y="220" width="20" height="20" as="geometry" />
        </mxCell>
        <mxCell id="JXRzYk3_wMIeTqWAo9iV-170" value="" style="whiteSpace=wrap;html=1;aspect=fixed;opacity=50;fillColor=none;" vertex="1" parent="1">
          <mxGeometry x="600" y="160" width="20" height="20" as="geometry" />
        </mxCell>
        <mxCell id="JXRzYk3_wMIeTqWAo9iV-171" value="" style="whiteSpace=wrap;html=1;aspect=fixed;opacity=50;fillColor=none;" vertex="1" parent="1">
          <mxGeometry x="600" y="180" width="20" height="20" as="geometry" />
        </mxCell>
        <mxCell id="JXRzYk3_wMIeTqWAo9iV-172" value="" style="whiteSpace=wrap;html=1;aspect=fixed;opacity=50;fillColor=none;" vertex="1" parent="1">
          <mxGeometry x="600" y="200" width="20" height="20" as="geometry" />
        </mxCell>
        <mxCell id="JXRzYk3_wMIeTqWAo9iV-173" value="" style="whiteSpace=wrap;html=1;aspect=fixed;opacity=50;fillColor=none;" vertex="1" parent="1">
          <mxGeometry x="600" y="220" width="20" height="20" as="geometry" />
        </mxCell>
        <mxCell id="JXRzYk3_wMIeTqWAo9iV-174" value="" style="whiteSpace=wrap;html=1;aspect=fixed;opacity=50;fillColor=none;" vertex="1" parent="1">
          <mxGeometry x="620" y="160" width="20" height="20" as="geometry" />
        </mxCell>
        <mxCell id="JXRzYk3_wMIeTqWAo9iV-175" value="" style="whiteSpace=wrap;html=1;aspect=fixed;opacity=50;fillColor=none;" vertex="1" parent="1">
          <mxGeometry x="620" y="180" width="20" height="20" as="geometry" />
        </mxCell>
        <mxCell id="JXRzYk3_wMIeTqWAo9iV-176" value="" style="whiteSpace=wrap;html=1;aspect=fixed;opacity=50;fillColor=none;" vertex="1" parent="1">
          <mxGeometry x="620" y="200" width="20" height="20" as="geometry" />
        </mxCell>
        <mxCell id="JXRzYk3_wMIeTqWAo9iV-177" value="" style="whiteSpace=wrap;html=1;aspect=fixed;opacity=50;fillColor=none;" vertex="1" parent="1">
          <mxGeometry x="620" y="220" width="20" height="20" as="geometry" />
        </mxCell>
        <mxCell id="JXRzYk3_wMIeTqWAo9iV-178" value="" style="whiteSpace=wrap;html=1;aspect=fixed;opacity=50;fillColor=none;" vertex="1" parent="1">
          <mxGeometry x="640" y="160" width="20" height="20" as="geometry" />
        </mxCell>
        <mxCell id="JXRzYk3_wMIeTqWAo9iV-179" value="" style="whiteSpace=wrap;html=1;aspect=fixed;opacity=50;fillColor=none;" vertex="1" parent="1">
          <mxGeometry x="640" y="180" width="20" height="20" as="geometry" />
        </mxCell>
        <mxCell id="JXRzYk3_wMIeTqWAo9iV-180" value="" style="whiteSpace=wrap;html=1;aspect=fixed;opacity=50;fillColor=none;" vertex="1" parent="1">
          <mxGeometry x="640" y="200" width="20" height="20" as="geometry" />
        </mxCell>
        <mxCell id="JXRzYk3_wMIeTqWAo9iV-181" value="" style="whiteSpace=wrap;html=1;aspect=fixed;opacity=50;fillColor=none;" vertex="1" parent="1">
          <mxGeometry x="640" y="220" width="20" height="20" as="geometry" />
        </mxCell>
        <mxCell id="JXRzYk3_wMIeTqWAo9iV-182" value="" style="whiteSpace=wrap;html=1;aspect=fixed;opacity=50;fillColor=none;" vertex="1" parent="1">
          <mxGeometry x="660" y="160" width="20" height="20" as="geometry" />
        </mxCell>
        <mxCell id="JXRzYk3_wMIeTqWAo9iV-183" value="" style="whiteSpace=wrap;html=1;aspect=fixed;opacity=50;fillColor=none;" vertex="1" parent="1">
          <mxGeometry x="660" y="180" width="20" height="20" as="geometry" />
        </mxCell>
        <mxCell id="JXRzYk3_wMIeTqWAo9iV-184" value="" style="whiteSpace=wrap;html=1;aspect=fixed;opacity=50;fillColor=none;" vertex="1" parent="1">
          <mxGeometry x="660" y="200" width="20" height="20" as="geometry" />
        </mxCell>
        <mxCell id="JXRzYk3_wMIeTqWAo9iV-185" value="" style="whiteSpace=wrap;html=1;aspect=fixed;opacity=50;fillColor=none;" vertex="1" parent="1">
          <mxGeometry x="660" y="220" width="20" height="20" as="geometry" />
        </mxCell>
        <mxCell id="JXRzYk3_wMIeTqWAo9iV-186" value="" style="whiteSpace=wrap;html=1;aspect=fixed;opacity=50;fillColor=#666666;strokeColor=default;fontColor=default;" vertex="1" parent="1">
          <mxGeometry x="680" y="160" width="20" height="20" as="geometry" />
        </mxCell>
        <mxCell id="JXRzYk3_wMIeTqWAo9iV-187" value="" style="whiteSpace=wrap;html=1;aspect=fixed;opacity=50;fillColor=#666666;strokeColor=default;fontColor=default;" vertex="1" parent="1">
          <mxGeometry x="680" y="180" width="20" height="20" as="geometry" />
        </mxCell>
        <mxCell id="JXRzYk3_wMIeTqWAo9iV-188" value="" style="whiteSpace=wrap;html=1;aspect=fixed;opacity=50;fillColor=#666666;strokeColor=default;fontColor=default;" vertex="1" parent="1">
          <mxGeometry x="680" y="200" width="20" height="20" as="geometry" />
        </mxCell>
        <mxCell id="JXRzYk3_wMIeTqWAo9iV-189" value="" style="whiteSpace=wrap;html=1;aspect=fixed;opacity=50;fillColor=#666666;strokeColor=default;fontColor=default;" vertex="1" parent="1">
          <mxGeometry x="680" y="220" width="20" height="20" as="geometry" />
        </mxCell>
        <mxCell id="JXRzYk3_wMIeTqWAo9iV-190" value="" style="whiteSpace=wrap;html=1;aspect=fixed;opacity=50;fillColor=#666666;strokeColor=default;fontColor=default;" vertex="1" parent="1">
          <mxGeometry x="700" y="160" width="20" height="20" as="geometry" />
        </mxCell>
        <mxCell id="JXRzYk3_wMIeTqWAo9iV-191" value="" style="whiteSpace=wrap;html=1;aspect=fixed;opacity=50;fillColor=#666666;strokeColor=default;fontColor=default;" vertex="1" parent="1">
          <mxGeometry x="700" y="180" width="20" height="20" as="geometry" />
        </mxCell>
        <mxCell id="JXRzYk3_wMIeTqWAo9iV-192" value="" style="whiteSpace=wrap;html=1;aspect=fixed;opacity=50;fillColor=#666666;strokeColor=default;fontColor=default;" vertex="1" parent="1">
          <mxGeometry x="700" y="200" width="20" height="20" as="geometry" />
        </mxCell>
        <mxCell id="JXRzYk3_wMIeTqWAo9iV-193" value="" style="whiteSpace=wrap;html=1;aspect=fixed;opacity=50;fillColor=#666666;strokeColor=default;fontColor=default;" vertex="1" parent="1">
          <mxGeometry x="700" y="220" width="20" height="20" as="geometry" />
        </mxCell>
        <mxCell id="JXRzYk3_wMIeTqWAo9iV-194" value="" style="whiteSpace=wrap;html=1;aspect=fixed;opacity=50;fillColor=none;" vertex="1" parent="1">
          <mxGeometry x="400" y="240" width="20" height="20" as="geometry" />
        </mxCell>
        <mxCell id="JXRzYk3_wMIeTqWAo9iV-195" value="" style="whiteSpace=wrap;html=1;aspect=fixed;opacity=50;fillColor=none;" vertex="1" parent="1">
          <mxGeometry x="400" y="260" width="20" height="20" as="geometry" />
        </mxCell>
        <mxCell id="JXRzYk3_wMIeTqWAo9iV-196" value="" style="whiteSpace=wrap;html=1;aspect=fixed;opacity=50;fillColor=#666666;strokeColor=default;fontColor=default;" vertex="1" parent="1">
          <mxGeometry x="400" y="280" width="20" height="20" as="geometry" />
        </mxCell>
        <mxCell id="JXRzYk3_wMIeTqWAo9iV-197" value="" style="whiteSpace=wrap;html=1;aspect=fixed;opacity=50;fillColor=#666666;" vertex="1" parent="1">
          <mxGeometry x="400" y="300" width="20" height="20" as="geometry" />
        </mxCell>
        <mxCell id="JXRzYk3_wMIeTqWAo9iV-198" value="" style="whiteSpace=wrap;html=1;aspect=fixed;opacity=50;fillColor=none;" vertex="1" parent="1">
          <mxGeometry x="420" y="240" width="20" height="20" as="geometry" />
        </mxCell>
        <mxCell id="JXRzYk3_wMIeTqWAo9iV-199" value="" style="whiteSpace=wrap;html=1;aspect=fixed;opacity=50;fillColor=none;" vertex="1" parent="1">
          <mxGeometry x="420" y="260" width="20" height="20" as="geometry" />
        </mxCell>
        <mxCell id="JXRzYk3_wMIeTqWAo9iV-200" value="" style="whiteSpace=wrap;html=1;aspect=fixed;opacity=50;fillColor=#666666;strokeColor=default;fontColor=default;" vertex="1" parent="1">
          <mxGeometry x="420" y="280" width="20" height="20" as="geometry" />
        </mxCell>
        <mxCell id="JXRzYk3_wMIeTqWAo9iV-201" value="" style="whiteSpace=wrap;html=1;aspect=fixed;opacity=50;fillColor=#666666;strokeColor=default;fontColor=default;" vertex="1" parent="1">
          <mxGeometry x="420" y="300" width="20" height="20" as="geometry" />
        </mxCell>
        <mxCell id="JXRzYk3_wMIeTqWAo9iV-202" value="" style="whiteSpace=wrap;html=1;aspect=fixed;opacity=50;fillColor=none;" vertex="1" parent="1">
          <mxGeometry x="440" y="240" width="20" height="20" as="geometry" />
        </mxCell>
        <mxCell id="JXRzYk3_wMIeTqWAo9iV-203" value="" style="whiteSpace=wrap;html=1;aspect=fixed;opacity=50;fillColor=none;" vertex="1" parent="1">
          <mxGeometry x="440" y="260" width="20" height="20" as="geometry" />
        </mxCell>
        <mxCell id="JXRzYk3_wMIeTqWAo9iV-204" value="" style="whiteSpace=wrap;html=1;aspect=fixed;opacity=50;fillColor=#666666;strokeColor=default;fontColor=default;" vertex="1" parent="1">
          <mxGeometry x="440" y="280" width="20" height="20" as="geometry" />
        </mxCell>
        <mxCell id="JXRzYk3_wMIeTqWAo9iV-205" value="" style="whiteSpace=wrap;html=1;aspect=fixed;opacity=50;fillColor=#666666;strokeColor=default;fontColor=default;" vertex="1" parent="1">
          <mxGeometry x="440" y="300" width="20" height="20" as="geometry" />
        </mxCell>
        <mxCell id="JXRzYk3_wMIeTqWAo9iV-206" value="" style="whiteSpace=wrap;html=1;aspect=fixed;opacity=50;fillColor=none;" vertex="1" parent="1">
          <mxGeometry x="460" y="240" width="20" height="20" as="geometry" />
        </mxCell>
        <mxCell id="JXRzYk3_wMIeTqWAo9iV-207" value="" style="whiteSpace=wrap;html=1;aspect=fixed;opacity=50;fillColor=none;" vertex="1" parent="1">
          <mxGeometry x="460" y="260" width="20" height="20" as="geometry" />
        </mxCell>
        <mxCell id="JXRzYk3_wMIeTqWAo9iV-208" value="" style="whiteSpace=wrap;html=1;aspect=fixed;opacity=50;fillColor=#666666;strokeColor=default;fontColor=default;" vertex="1" parent="1">
          <mxGeometry x="460" y="280" width="20" height="20" as="geometry" />
        </mxCell>
        <mxCell id="JXRzYk3_wMIeTqWAo9iV-209" value="" style="whiteSpace=wrap;html=1;aspect=fixed;opacity=50;fillColor=#666666;strokeColor=default;fontColor=default;" vertex="1" parent="1">
          <mxGeometry x="460" y="300" width="20" height="20" as="geometry" />
        </mxCell>
        <mxCell id="JXRzYk3_wMIeTqWAo9iV-210" value="" style="whiteSpace=wrap;html=1;aspect=fixed;opacity=50;fillColor=none;" vertex="1" parent="1">
          <mxGeometry x="480" y="240" width="20" height="20" as="geometry" />
        </mxCell>
        <mxCell id="JXRzYk3_wMIeTqWAo9iV-211" value="" style="whiteSpace=wrap;html=1;aspect=fixed;opacity=50;fillColor=none;" vertex="1" parent="1">
          <mxGeometry x="480" y="260" width="20" height="20" as="geometry" />
        </mxCell>
        <mxCell id="JXRzYk3_wMIeTqWAo9iV-212" value="" style="whiteSpace=wrap;html=1;aspect=fixed;opacity=50;fillColor=#666666;strokeColor=default;fontColor=default;" vertex="1" parent="1">
          <mxGeometry x="480" y="280" width="20" height="20" as="geometry" />
        </mxCell>
        <mxCell id="JXRzYk3_wMIeTqWAo9iV-213" value="" style="whiteSpace=wrap;html=1;aspect=fixed;opacity=50;fillColor=#666666;strokeColor=default;fontColor=default;" vertex="1" parent="1">
          <mxGeometry x="480" y="300" width="20" height="20" as="geometry" />
        </mxCell>
        <mxCell id="JXRzYk3_wMIeTqWAo9iV-214" value="" style="whiteSpace=wrap;html=1;aspect=fixed;opacity=50;fillColor=none;" vertex="1" parent="1">
          <mxGeometry x="500" y="240" width="20" height="20" as="geometry" />
        </mxCell>
        <mxCell id="JXRzYk3_wMIeTqWAo9iV-215" value="" style="whiteSpace=wrap;html=1;aspect=fixed;opacity=50;fillColor=none;" vertex="1" parent="1">
          <mxGeometry x="500" y="260" width="20" height="20" as="geometry" />
        </mxCell>
        <mxCell id="JXRzYk3_wMIeTqWAo9iV-216" value="" style="whiteSpace=wrap;html=1;aspect=fixed;opacity=50;fillColor=#666666;strokeColor=default;fontColor=default;" vertex="1" parent="1">
          <mxGeometry x="500" y="280" width="20" height="20" as="geometry" />
        </mxCell>
        <mxCell id="JXRzYk3_wMIeTqWAo9iV-217" value="" style="whiteSpace=wrap;html=1;aspect=fixed;opacity=50;fillColor=#666666;strokeColor=default;fontColor=default;" vertex="1" parent="1">
          <mxGeometry x="500" y="300" width="20" height="20" as="geometry" />
        </mxCell>
        <mxCell id="JXRzYk3_wMIeTqWAo9iV-218" value="" style="whiteSpace=wrap;html=1;aspect=fixed;opacity=50;fillColor=none;" vertex="1" parent="1">
          <mxGeometry x="520" y="240" width="20" height="20" as="geometry" />
        </mxCell>
        <mxCell id="JXRzYk3_wMIeTqWAo9iV-219" value="" style="whiteSpace=wrap;html=1;aspect=fixed;opacity=50;fillColor=none;" vertex="1" parent="1">
          <mxGeometry x="520" y="260" width="20" height="20" as="geometry" />
        </mxCell>
        <mxCell id="JXRzYk3_wMIeTqWAo9iV-220" value="" style="whiteSpace=wrap;html=1;aspect=fixed;opacity=50;fillColor=#666666;strokeColor=default;fontColor=default;" vertex="1" parent="1">
          <mxGeometry x="520" y="280" width="20" height="20" as="geometry" />
        </mxCell>
        <mxCell id="JXRzYk3_wMIeTqWAo9iV-221" value="" style="whiteSpace=wrap;html=1;aspect=fixed;opacity=50;fillColor=#666666;strokeColor=default;fontColor=default;" vertex="1" parent="1">
          <mxGeometry x="520" y="300" width="20" height="20" as="geometry" />
        </mxCell>
        <mxCell id="JXRzYk3_wMIeTqWAo9iV-222" value="" style="whiteSpace=wrap;html=1;aspect=fixed;opacity=50;fillColor=none;" vertex="1" parent="1">
          <mxGeometry x="540" y="240" width="20" height="20" as="geometry" />
        </mxCell>
        <mxCell id="JXRzYk3_wMIeTqWAo9iV-223" value="" style="whiteSpace=wrap;html=1;aspect=fixed;opacity=50;fillColor=none;" vertex="1" parent="1">
          <mxGeometry x="540" y="260" width="20" height="20" as="geometry" />
        </mxCell>
        <mxCell id="JXRzYk3_wMIeTqWAo9iV-224" value="" style="whiteSpace=wrap;html=1;aspect=fixed;opacity=50;fillColor=#666666;strokeColor=default;fontColor=default;" vertex="1" parent="1">
          <mxGeometry x="540" y="280" width="20" height="20" as="geometry" />
        </mxCell>
        <mxCell id="JXRzYk3_wMIeTqWAo9iV-225" value="" style="whiteSpace=wrap;html=1;aspect=fixed;opacity=50;fillColor=#666666;strokeColor=default;fontColor=default;" vertex="1" parent="1">
          <mxGeometry x="540" y="300" width="20" height="20" as="geometry" />
        </mxCell>
        <mxCell id="JXRzYk3_wMIeTqWAo9iV-226" value="" style="whiteSpace=wrap;html=1;aspect=fixed;opacity=50;fillColor=none;" vertex="1" parent="1">
          <mxGeometry x="560" y="240" width="20" height="20" as="geometry" />
        </mxCell>
        <mxCell id="JXRzYk3_wMIeTqWAo9iV-227" value="" style="whiteSpace=wrap;html=1;aspect=fixed;opacity=50;fillColor=none;" vertex="1" parent="1">
          <mxGeometry x="560" y="260" width="20" height="20" as="geometry" />
        </mxCell>
        <mxCell id="JXRzYk3_wMIeTqWAo9iV-228" value="" style="whiteSpace=wrap;html=1;aspect=fixed;opacity=50;fillColor=#666666;strokeColor=default;fontColor=default;" vertex="1" parent="1">
          <mxGeometry x="560" y="280" width="20" height="20" as="geometry" />
        </mxCell>
        <mxCell id="JXRzYk3_wMIeTqWAo9iV-229" value="" style="whiteSpace=wrap;html=1;aspect=fixed;opacity=50;fillColor=#666666;strokeColor=default;fontColor=default;" vertex="1" parent="1">
          <mxGeometry x="560" y="300" width="20" height="20" as="geometry" />
        </mxCell>
        <mxCell id="JXRzYk3_wMIeTqWAo9iV-230" value="" style="whiteSpace=wrap;html=1;aspect=fixed;opacity=50;fillColor=none;" vertex="1" parent="1">
          <mxGeometry x="580" y="240" width="20" height="20" as="geometry" />
        </mxCell>
        <mxCell id="JXRzYk3_wMIeTqWAo9iV-231" value="" style="whiteSpace=wrap;html=1;aspect=fixed;opacity=50;fillColor=none;" vertex="1" parent="1">
          <mxGeometry x="580" y="260" width="20" height="20" as="geometry" />
        </mxCell>
        <mxCell id="JXRzYk3_wMIeTqWAo9iV-232" value="" style="whiteSpace=wrap;html=1;aspect=fixed;opacity=50;fillColor=#666666;strokeColor=default;fontColor=default;" vertex="1" parent="1">
          <mxGeometry x="580" y="280" width="20" height="20" as="geometry" />
        </mxCell>
        <mxCell id="JXRzYk3_wMIeTqWAo9iV-233" value="" style="whiteSpace=wrap;html=1;aspect=fixed;opacity=50;fillColor=#666666;strokeColor=default;fontColor=default;" vertex="1" parent="1">
          <mxGeometry x="580" y="300" width="20" height="20" as="geometry" />
        </mxCell>
        <mxCell id="JXRzYk3_wMIeTqWAo9iV-234" value="" style="whiteSpace=wrap;html=1;aspect=fixed;opacity=50;fillColor=none;" vertex="1" parent="1">
          <mxGeometry x="600" y="240" width="20" height="20" as="geometry" />
        </mxCell>
        <mxCell id="JXRzYk3_wMIeTqWAo9iV-235" value="" style="whiteSpace=wrap;html=1;aspect=fixed;opacity=50;fillColor=none;" vertex="1" parent="1">
          <mxGeometry x="600" y="260" width="20" height="20" as="geometry" />
        </mxCell>
        <mxCell id="JXRzYk3_wMIeTqWAo9iV-236" value="" style="whiteSpace=wrap;html=1;aspect=fixed;opacity=50;fillColor=#666666;strokeColor=default;fontColor=default;" vertex="1" parent="1">
          <mxGeometry x="600" y="280" width="20" height="20" as="geometry" />
        </mxCell>
        <mxCell id="JXRzYk3_wMIeTqWAo9iV-237" value="" style="whiteSpace=wrap;html=1;aspect=fixed;opacity=50;fillColor=#666666;strokeColor=default;fontColor=default;" vertex="1" parent="1">
          <mxGeometry x="600" y="300" width="20" height="20" as="geometry" />
        </mxCell>
        <mxCell id="JXRzYk3_wMIeTqWAo9iV-238" value="" style="whiteSpace=wrap;html=1;aspect=fixed;opacity=50;fillColor=none;" vertex="1" parent="1">
          <mxGeometry x="620" y="240" width="20" height="20" as="geometry" />
        </mxCell>
        <mxCell id="JXRzYk3_wMIeTqWAo9iV-239" value="" style="whiteSpace=wrap;html=1;aspect=fixed;opacity=50;fillColor=none;" vertex="1" parent="1">
          <mxGeometry x="620" y="260" width="20" height="20" as="geometry" />
        </mxCell>
        <mxCell id="JXRzYk3_wMIeTqWAo9iV-240" value="" style="whiteSpace=wrap;html=1;aspect=fixed;opacity=50;fillColor=#666666;strokeColor=default;fontColor=default;" vertex="1" parent="1">
          <mxGeometry x="620" y="280" width="20" height="20" as="geometry" />
        </mxCell>
        <mxCell id="JXRzYk3_wMIeTqWAo9iV-241" value="" style="whiteSpace=wrap;html=1;aspect=fixed;opacity=50;fillColor=#666666;strokeColor=default;fontColor=default;" vertex="1" parent="1">
          <mxGeometry x="620" y="300" width="20" height="20" as="geometry" />
        </mxCell>
        <mxCell id="JXRzYk3_wMIeTqWAo9iV-242" value="" style="whiteSpace=wrap;html=1;aspect=fixed;opacity=50;fillColor=none;" vertex="1" parent="1">
          <mxGeometry x="640" y="240" width="20" height="20" as="geometry" />
        </mxCell>
        <mxCell id="JXRzYk3_wMIeTqWAo9iV-243" value="" style="whiteSpace=wrap;html=1;aspect=fixed;opacity=50;fillColor=none;" vertex="1" parent="1">
          <mxGeometry x="640" y="260" width="20" height="20" as="geometry" />
        </mxCell>
        <mxCell id="JXRzYk3_wMIeTqWAo9iV-244" value="" style="whiteSpace=wrap;html=1;aspect=fixed;opacity=50;fillColor=#666666;strokeColor=default;fontColor=default;" vertex="1" parent="1">
          <mxGeometry x="640" y="280" width="20" height="20" as="geometry" />
        </mxCell>
        <mxCell id="JXRzYk3_wMIeTqWAo9iV-245" value="" style="whiteSpace=wrap;html=1;aspect=fixed;opacity=50;fillColor=#666666;strokeColor=default;fontColor=default;" vertex="1" parent="1">
          <mxGeometry x="640" y="300" width="20" height="20" as="geometry" />
        </mxCell>
        <mxCell id="JXRzYk3_wMIeTqWAo9iV-246" value="" style="whiteSpace=wrap;html=1;aspect=fixed;opacity=50;fillColor=none;" vertex="1" parent="1">
          <mxGeometry x="660" y="240" width="20" height="20" as="geometry" />
        </mxCell>
        <mxCell id="JXRzYk3_wMIeTqWAo9iV-247" value="" style="whiteSpace=wrap;html=1;aspect=fixed;opacity=50;fillColor=none;" vertex="1" parent="1">
          <mxGeometry x="660" y="260" width="20" height="20" as="geometry" />
        </mxCell>
        <mxCell id="JXRzYk3_wMIeTqWAo9iV-248" value="" style="whiteSpace=wrap;html=1;aspect=fixed;opacity=50;fillColor=#666666;strokeColor=default;fontColor=default;" vertex="1" parent="1">
          <mxGeometry x="660" y="280" width="20" height="20" as="geometry" />
        </mxCell>
        <mxCell id="JXRzYk3_wMIeTqWAo9iV-249" value="" style="whiteSpace=wrap;html=1;aspect=fixed;opacity=50;fillColor=#666666;strokeColor=default;fontColor=default;" vertex="1" parent="1">
          <mxGeometry x="660" y="300" width="20" height="20" as="geometry" />
        </mxCell>
        <mxCell id="JXRzYk3_wMIeTqWAo9iV-250" value="" style="whiteSpace=wrap;html=1;aspect=fixed;opacity=50;fillColor=#666666;strokeColor=default;fontColor=default;" vertex="1" parent="1">
          <mxGeometry x="680" y="240" width="20" height="20" as="geometry" />
        </mxCell>
        <mxCell id="JXRzYk3_wMIeTqWAo9iV-251" value="" style="whiteSpace=wrap;html=1;aspect=fixed;opacity=50;fillColor=#666666;strokeColor=default;fontColor=default;" vertex="1" parent="1">
          <mxGeometry x="680" y="260" width="20" height="20" as="geometry" />
        </mxCell>
        <mxCell id="JXRzYk3_wMIeTqWAo9iV-252" value="" style="whiteSpace=wrap;html=1;aspect=fixed;opacity=50;fillColor=#666666;strokeColor=default;fontColor=default;" vertex="1" parent="1">
          <mxGeometry x="680" y="280" width="20" height="20" as="geometry" />
        </mxCell>
        <mxCell id="JXRzYk3_wMIeTqWAo9iV-253" value="" style="whiteSpace=wrap;html=1;aspect=fixed;opacity=50;fillColor=#666666;strokeColor=default;fontColor=default;" vertex="1" parent="1">
          <mxGeometry x="680" y="300" width="20" height="20" as="geometry" />
        </mxCell>
        <mxCell id="JXRzYk3_wMIeTqWAo9iV-254" value="" style="whiteSpace=wrap;html=1;aspect=fixed;opacity=50;fillColor=#666666;strokeColor=default;fontColor=default;" vertex="1" parent="1">
          <mxGeometry x="700" y="240" width="20" height="20" as="geometry" />
        </mxCell>
        <mxCell id="JXRzYk3_wMIeTqWAo9iV-255" value="" style="whiteSpace=wrap;html=1;aspect=fixed;opacity=50;fillColor=#666666;strokeColor=default;fontColor=default;" vertex="1" parent="1">
          <mxGeometry x="700" y="260" width="20" height="20" as="geometry" />
        </mxCell>
        <mxCell id="JXRzYk3_wMIeTqWAo9iV-256" value="" style="whiteSpace=wrap;html=1;aspect=fixed;opacity=50;fillColor=#666666;strokeColor=default;fontColor=default;" vertex="1" parent="1">
          <mxGeometry x="700" y="280" width="20" height="20" as="geometry" />
        </mxCell>
        <mxCell id="JXRzYk3_wMIeTqWAo9iV-257" value="" style="whiteSpace=wrap;html=1;aspect=fixed;opacity=50;fillColor=#666666;strokeColor=default;fontColor=default;" vertex="1" parent="1">
          <mxGeometry x="700" y="300" width="20" height="20" as="geometry" />
        </mxCell>
        <mxCell id="JXRzYk3_wMIeTqWAo9iV-258" value="" style="rounded=0;whiteSpace=wrap;html=1;strokeWidth=4;fillColor=none;strokeColor=#CC0000;" vertex="1" parent="1">
          <mxGeometry x="400" y="80" width="80" height="80" as="geometry" />
        </mxCell>
        <mxCell id="JXRzYk3_wMIeTqWAo9iV-259" value="" style="rounded=0;whiteSpace=wrap;html=1;strokeWidth=4;fillColor=none;strokeColor=#CC0000;" vertex="1" parent="1">
          <mxGeometry x="480" y="80" width="80" height="80" as="geometry" />
        </mxCell>
        <mxCell id="JXRzYk3_wMIeTqWAo9iV-260" value="" style="rounded=0;whiteSpace=wrap;html=1;strokeWidth=4;fillColor=none;strokeColor=#CC0000;" vertex="1" parent="1">
          <mxGeometry x="560" y="80" width="80" height="80" as="geometry" />
        </mxCell>
        <mxCell id="JXRzYk3_wMIeTqWAo9iV-261" value="" style="rounded=0;whiteSpace=wrap;html=1;strokeWidth=4;fillColor=none;strokeColor=#CC0000;" vertex="1" parent="1">
          <mxGeometry x="640" y="160" width="80" height="80" as="geometry" />
        </mxCell>
        <mxCell id="JXRzYk3_wMIeTqWAo9iV-262" value="" style="rounded=0;whiteSpace=wrap;html=1;strokeWidth=4;fillColor=none;strokeColor=#CC0000;" vertex="1" parent="1">
          <mxGeometry x="400" y="160" width="80" height="80" as="geometry" />
        </mxCell>
        <mxCell id="JXRzYk3_wMIeTqWAo9iV-263" value="" style="rounded=0;whiteSpace=wrap;html=1;strokeWidth=4;fillColor=none;strokeColor=#CC0000;" vertex="1" parent="1">
          <mxGeometry x="480" y="160" width="80" height="80" as="geometry" />
        </mxCell>
        <mxCell id="JXRzYk3_wMIeTqWAo9iV-264" value="" style="rounded=0;whiteSpace=wrap;html=1;strokeWidth=4;fillColor=none;strokeColor=#CC0000;" vertex="1" parent="1">
          <mxGeometry x="560" y="160" width="80" height="80" as="geometry" />
        </mxCell>
        <mxCell id="JXRzYk3_wMIeTqWAo9iV-265" value="" style="rounded=0;whiteSpace=wrap;html=1;strokeWidth=4;fillColor=none;strokeColor=#CC0000;" vertex="1" parent="1">
          <mxGeometry x="640" y="80" width="80" height="80" as="geometry" />
        </mxCell>
        <mxCell id="JXRzYk3_wMIeTqWAo9iV-266" value="" style="rounded=0;whiteSpace=wrap;html=1;strokeWidth=4;fillColor=none;strokeColor=#CC0000;" vertex="1" parent="1">
          <mxGeometry x="400" y="240" width="80" height="80" as="geometry" />
        </mxCell>
        <mxCell id="JXRzYk3_wMIeTqWAo9iV-267" value="" style="rounded=0;whiteSpace=wrap;html=1;strokeWidth=4;fillColor=none;strokeColor=#CC0000;" vertex="1" parent="1">
          <mxGeometry x="480" y="240" width="80" height="80" as="geometry" />
        </mxCell>
        <mxCell id="JXRzYk3_wMIeTqWAo9iV-268" value="" style="rounded=0;whiteSpace=wrap;html=1;strokeWidth=4;fillColor=none;strokeColor=#CC0000;" vertex="1" parent="1">
          <mxGeometry x="560" y="240" width="80" height="80" as="geometry" />
        </mxCell>
        <mxCell id="JXRzYk3_wMIeTqWAo9iV-269" value="" style="rounded=0;whiteSpace=wrap;html=1;strokeWidth=4;fillColor=none;strokeColor=#CC0000;" vertex="1" parent="1">
          <mxGeometry x="640" y="240" width="80" height="80" as="geometry" />
        </mxCell>
        <mxCell id="JXRzYk3_wMIeTqWAo9iV-270" value="" style="rounded=0;whiteSpace=wrap;html=1;strokeWidth=4;fillColor=none;strokeColor=#CC0000;" vertex="1" parent="1">
          <mxGeometry x="400" width="80" height="80" as="geometry" />
        </mxCell>
        <mxCell id="JXRzYk3_wMIeTqWAo9iV-271" value="" style="rounded=0;whiteSpace=wrap;html=1;strokeWidth=4;fillColor=none;strokeColor=#CC0000;" vertex="1" parent="1">
          <mxGeometry x="480" width="80" height="80" as="geometry" />
        </mxCell>
        <mxCell id="JXRzYk3_wMIeTqWAo9iV-272" value="" style="rounded=0;whiteSpace=wrap;html=1;strokeWidth=4;fillColor=none;strokeColor=#CC0000;" vertex="1" parent="1">
          <mxGeometry x="560" width="80" height="80" as="geometry" />
        </mxCell>
        <mxCell id="JXRzYk3_wMIeTqWAo9iV-273" value="" style="rounded=0;whiteSpace=wrap;html=1;strokeWidth=4;fillColor=none;strokeColor=#CC0000;" vertex="1" parent="1">
          <mxGeometry x="640" width="80" height="80" as="geometry" />
        </mxCell>
        <mxCell id="JXRzYk3_wMIeTqWAo9iV-274" value="" style="rounded=0;whiteSpace=wrap;html=1;fillColor=none;strokeColor=none;" vertex="1" parent="1">
          <mxGeometry width="40" height="40" as="geometry" />
        </mxCell>
        <mxCell id="JXRzYk3_wMIeTqWAo9iV-275" value="" style="rounded=0;whiteSpace=wrap;html=1;fillColor=none;strokeColor=none;" vertex="1" parent="1">
          <mxGeometry x="1600" width="40" height="40" as="geometry" />
        </mxCell>
        <mxCell id="JXRzYk3_wMIeTqWAo9iV-276" value="&lt;div&gt;&lt;br&gt;&lt;/div&gt;" style="text;html=1;align=left;verticalAlign=middle;resizable=0;points=[];autosize=1;strokeColor=none;fillColor=none;fontStyle=1" vertex="1" parent="1">
          <mxGeometry x="810" y="145" width="20" height="30" as="geometry" />
        </mxCell>
        <mxCell id="JXRzYk3_wMIeTqWAo9iV-277" value="&lt;div style=&quot;border-color: var(--border-color); font-family: &amp;quot;Lucida Console&amp;quot;; font-weight: 700; text-align: left;&quot;&gt;&lt;font style=&quot;font-size: 15px;&quot;&gt;スレッドの位置がグリッドの外だった場合は即時終了。&lt;/font&gt;&lt;br style=&quot;border-color: var(--border-color);&quot;&gt;&lt;/div&gt;&lt;div style=&quot;border-color: var(--border-color); font-family: &amp;quot;Lucida Console&amp;quot;; font-weight: 700; text-align: left;&quot;&gt;&lt;br style=&quot;border-color: var(--border-color);&quot;&gt;&lt;/div&gt;&lt;div style=&quot;border-color: var(--border-color); font-family: &amp;quot;Lucida Console&amp;quot;; font-weight: 700; text-align: left;&quot;&gt;if((gid.x &amp;gt;= outTexture.get_width()) || (gid.y &amp;gt;= outTexture.get_height()))&lt;br style=&quot;border-color: var(--border-color);&quot;&gt;&lt;/div&gt;&lt;div style=&quot;border-color: var(--border-color); font-family: &amp;quot;Lucida Console&amp;quot;; font-weight: 700; text-align: left;&quot;&gt;{&lt;/div&gt;&lt;div style=&quot;border-color: var(--border-color); font-family: &amp;quot;Lucida Console&amp;quot;; font-weight: 700; text-align: left;&quot;&gt;&amp;nbsp; &amp;nbsp; return;&lt;/div&gt;&lt;div style=&quot;border-color: var(--border-color); font-family: &amp;quot;Lucida Console&amp;quot;; font-weight: 700; text-align: left;&quot;&gt;}&lt;/div&gt;" style="shape=callout;whiteSpace=wrap;html=1;perimeter=calloutPerimeter;rounded=1;position2=0;" vertex="1" parent="1">
          <mxGeometry x="750" width="590" height="140" as="geometry" />
        </mxCell>
      </root>
    </mxGraphModel>
  </diagram>
</mxfile>
